<?xml version="1.0" encoding="utf-8"?>
<!-- Generator: Adobe Illustrator 21.0.0, SVG Export Plug-In . SVG Version: 6.00 Build 0)  -->
<svg version="1.1" id="Layer_1" xmlns="http://www.w3.org/2000/svg" xmlns:xlink="http://www.w3.org/1999/xlink" x="0px" y="0px"
	 viewBox="0 0 160 51" style="enable-background:new 0 0 160 51;" xml:space="preserve">
<style type="text/css">
	.st0{fill:#F4EA00;}
	.st1{fill:#FFFFFF;}
</style>
<title>Artboard 1</title>
<path class="st0" d="M159.9,23.4L159.9,23.4C157.4,4.1,138.5,0,123,0C95.6,0,82.4,12.2,76.1,22.7c-0.3,0.5-0.6,1-0.8,1.5
	c-0.9,1.8-1.6,3.8-2.1,5.8c-2.6,11.6,4.7,21,16.3,21c11.3,0,22.6-9,25.4-20.3c0.8-2.1-0.3-4.5-2.4-5.3c-0.5-0.2-1-0.3-1.5-0.3H96
	l-5.5,8.2h14.6c-2.6,5.1-8.1,8.8-13.7,8.8c-6.7,0-11-5.5-9.5-12.2c0.3-1.3,0.8-2.5,1.4-3.6l0,0C90,14.5,102.4,8.7,121.1,8.7
	c4.9-0.1,9.7,0.4,14.5,1.6c-8.6,3-15.9,10.6-17.9,19.6c-2.6,11.6,4.8,21,16.3,21s23-9.4,25.6-21C160,27.8,160.1,25.6,159.9,23.4z
	 M150.8,29.9c-1.5,6.7-8.2,12.2-14.9,12.2s-11-5.5-9.5-12.2s8.2-12.2,14.9-12.2c5,0,8.6,3,9.6,7.4l0.1,0.4
	C151.1,26.9,151.1,28.4,150.8,29.9L150.8,29.9z"/>
<path class="st1" d="M15.1,24c5.6,0,9.1,2.3,10.8,5.2l-6.1,4.6c-1-1.7-2.9-2.6-4.8-2.6c-4,0-6.8,3.3-6.8,7.4c0,3.2,2.5,5,5.6,5
	c1.9,0,3.6-0.9,4.8-2.3l4.4,5.3c-2.6,2.7-6.2,4.2-10,4.1C5,50.8,0,45.9,0,39c0-8.2,6.6-15,14.9-15C14.9,24,15,24,15.1,24z"/>
<path class="st1" d="M45.3,24.6h8.1l-5.7,25.5h-8.1l0.6-3c-1.7,2.3-4.4,3.6-7.3,3.6c-5.7,0-9.6-3.8-9.6-10.6
	C23.5,32.8,28,24,36.9,24c3-0.1,5.9,1.2,7.8,3.6L45.3,24.6z M36.8,43.6c1.9,0,3.6-0.9,4.8-2.4l1.7-7.7c-1.2-1.5-3.1-2.4-5.1-2.3
	c-3.8,0-6.5,3.3-6.5,7.4c-0.1,2.7,1.9,4.9,4.6,5C36.6,43.6,36.7,43.6,36.8,43.6L36.8,43.6z"/>
<path class="st1" d="M56.5,24.6h8.1l-0.7,3.2c2.1-2.3,8.8-3.8,8.8-3.8C70,27.4,70,32.3,70,32.3c-2.7-0.7-5.5,0-7.6,1.8l-3.4,16h-8.2
	L56.5,24.6z"/>
<path class="st0" d="M85.6,7.7L15.1,5.2l79.9-2.7C91.5,3.7,88.3,5.4,85.6,7.7z"/>
<path class="st0" d="M75.7,17.3L8.4,14.9l72.5-2.6C79,13.7,77.2,15.4,75.7,17.3z"/>
</svg>
