<?xml version="1.0" encoding="utf-8"?>
<!-- Generator: Adobe Illustrator 20.0.0, SVG Export Plug-In . SVG Version: 6.00 Build 0)  -->
<svg version="1.1" id="Layer_1" xmlns="http://www.w3.org/2000/svg" xmlns:xlink="http://www.w3.org/1999/xlink" x="0px" y="0px"
	 viewBox="0 0 200 200" style="enable-background:new 0 0 200 200;" xml:space="preserve">
<style type="text/css">
	.st0{fill:#F4EA00;}
</style>
<path class="st0" d="M137.5,27.4c5.2,0,9.8,1.6,14.1,5c4.3,3.4,7,7.4,8.2,12.4l10.3,40.9c0.6,2.4,2.8,4.1,5.3,4.1h2.7
	c4.6,0,8.4,1.6,11.6,4.8c3.2,3.2,4.8,7,4.8,11.6c0,0.2,0,0.3,0,0.5v34.7h-7c-3,0-5.5,2.4-5.5,5.5v12.5c0,3.7-1.3,6.8-3.9,9.4
	c-2.6,2.6-5.7,3.9-9.4,3.9c-3.7,0-6.8-1.3-9.4-3.9c-2.6-2.6-3.9-5.7-3.9-9.4v-12.5c0-3-2.4-5.5-5.5-5.5H50c-3,0-5.5,2.4-5.5,5.5
	v12.5c0,3.7-1.3,6.8-3.9,9.4c-2.6,2.6-5.7,3.9-9.4,3.9s-6.8-1.3-9.4-3.9c-2.6-2.6-3.9-5.7-3.9-9.4v-12.5c0-3-2.4-5.5-5.5-5.5h-7
	v-35.2c0-4.6,1.6-8.4,4.8-11.6c3.2-3.2,7-4.8,11.6-4.8h2.7c2.5,0,4.7-1.7,5.3-4.1l10.3-40.9c1.2-4.9,3.9-9,8.2-12.4
	c4.3-3.4,8.9-5,14.1-5H137.5 M50.4,89.8h99.2c1.7,0,3.3-0.8,4.3-2.1c1-1.3,1.4-3.1,1-4.7l-8.7-34.9c-0.4-1.7-1.5-3.3-3.3-4.7
	c-1.8-1.4-3.6-2.1-5.5-2.1h-75c-1.8,0-3.7,0.7-5.5,2.1c-1.8,1.4-2.8,2.9-3.3,4.7l-8.7,34.9c-0.4,1.6,0,3.4,1,4.7
	C47.1,89.1,48.7,89.8,50.4,89.8 M137.5,21.9h-75c-6.4,0-12.2,2.1-17.5,6.2c-5.3,4.1-8.7,9.3-10.2,15.4L24.6,84.4h-2.7
	c-6.1,0-11.2,2.1-15.5,6.4C2.1,95,0,100.2,0,106.3v37.5c0,0.9,0.3,1.7,0.9,2.2c0.6,0.6,1.3,0.9,2.2,0.9h9.4v12.5
	c0,5.2,1.8,9.6,5.5,13.3c3.6,3.6,8.1,5.5,13.3,5.5s9.6-1.8,13.3-5.5c3.6-3.6,5.5-8.1,5.5-13.3v-12.5h100v12.5
	c0,5.2,1.8,9.6,5.5,13.3c3.6,3.6,8.1,5.5,13.3,5.5c5.2,0,9.6-1.8,13.3-5.5c3.6-3.6,5.5-8.1,5.5-13.3v-12.5h9.4
	c0.9,0,1.7-0.3,2.2-0.9c0.6-0.6,0.9-1.3,0.9-2.2v-37.5h0c0-6.1-2.1-11.2-6.4-15.5c-4.3-4.3-9.4-6.4-15.5-6.4h-2.7l-10.3-40.9
	c-1.5-6.1-4.9-11.2-10.2-15.4C149.7,23.9,143.9,21.9,137.5,21.9L137.5,21.9z M50.4,84.4l8.7-34.9c0.1-0.5,0.6-1.1,1.4-1.7
	c0.8-0.6,1.5-0.9,2.1-0.9h75c0.6,0,1.3,0.3,2.1,0.9c0.8,0.6,1.2,1.2,1.4,1.7l8.7,34.9H50.4L50.4,84.4z M46.9,115.6
	c0-4.3-1.5-8-4.6-11c-3.1-3.1-6.7-4.6-11-4.6c-4.3,0-8,1.5-11,4.6s-4.6,6.7-4.6,11c0,4.3,1.5,8,4.6,11s6.7,4.6,11,4.6
	c4.3,0,8-1.5,11-4.6C45.4,123.6,46.9,119.9,46.9,115.6z M184.4,115.6c0-4.3-1.5-8-4.6-11c-3.1-3.1-6.7-4.6-11-4.6
	c-4.3,0-8,1.5-11,4.6c-3.1,3.1-4.6,6.7-4.6,11s1.5,8,4.6,11c3.1,3.1,6.7,4.6,11,4.6c4.3,0,8-1.5,11-4.6
	C182.8,123.6,184.4,119.9,184.4,115.6z"/>
</svg>
