<?xml version="1.0" encoding="utf-8"?>
<!-- Generator: Adobe Illustrator 20.0.0, SVG Export Plug-In . SVG Version: 6.00 Build 0)  -->
<svg version="1.1" id="Layer_1" xmlns="http://www.w3.org/2000/svg" xmlns:xlink="http://www.w3.org/1999/xlink" x="0px" y="0px"
	 viewBox="0 0 200 200" style="enable-background:new 0 0 200 200;" xml:space="preserve">
<style type="text/css">
	.st0{fill:#F4EA00;}
</style>
<path class="st0" d="M1.1,107.3l18.5-42.4l160.8,70.3l-18.5,42.4c-1.3,3.1-3.6,5.2-6.7,6.5c-3.1,1.2-6.2,1.2-9.3-0.2L7.3,123.3
	c-3.1-1.3-5.2-3.6-6.5-6.7C-0.3,113.5-0.3,110.4,1.1,107.3z M52.6,111.2l-3.9,8.9l26.8,11.7l3.9-8.9
	C79.4,122.9,52.6,111.2,52.6,111.2z M25.7,99.5l-3.9,8.9l17.9,7.8l3.9-8.9L25.7,99.5z M192.7,76.7c3.1,1.3,5.2,3.6,6.5,6.7
	c1.2,3.1,1.2,6.2-0.2,9.3l-6.8,15.6L31.3,38.1l6.8-15.6c1.3-3.1,3.6-5.2,6.7-6.5s6.2-1.2,9.3,0.2C54.2,16.1,192.7,76.7,192.7,76.7z"
	/>
</svg>
