<?xml version="1.0" encoding="utf-8"?>
<!-- Generator: Adobe Illustrator 20.0.0, SVG Export Plug-In . SVG Version: 6.00 Build 0)  -->
<svg version="1.1" id="Layer_1" xmlns="http://www.w3.org/2000/svg" xmlns:xlink="http://www.w3.org/1999/xlink" x="0px" y="0px"
	 viewBox="0 0 200 200" style="enable-background:new 0 0 200 200;" xml:space="preserve">
<style type="text/css">
	.st0{fill:#F4EA00;}
</style>
<path class="st0" d="M199.3,75.4c-1.7-5-6.2-8.7-11.5-9.4l-52-7.7l-22.6-47c-2.4-4.9-7.5-8.1-13.1-8.1c-5.6,0-10.7,3.2-13.1,8.1
	l-22.6,47l-52,7.7c-5.3,0.8-9.8,4.5-11.5,9.4c-1.7,5-0.4,10.5,3.4,14.3l38.1,38.1l-8.8,52.8c-0.9,5.3,1.4,10.7,5.9,13.8
	c2.5,1.7,5.4,2.6,8.3,2.6c2.4,0,4.8-0.6,7-1.8l45.4-24.4l45.4,24.4c2.2,1.2,4.6,1.8,7,1.8c2.9,0,5.8-0.9,8.3-2.6
	c4.5-3.1,6.8-8.5,5.9-13.8l-8.9-52.8l38.2-38.1C199.7,85.9,201,80.4,199.3,75.4z M147.4,117.9c-3.2,3.2-4.7,7.7-3.9,12.1l8.9,52.8
	L107,158.4c-2.2-1.2-4.6-1.8-7-1.8c-2.4,0-4.8,0.6-7,1.8l-45.4,24.4l8.9-52.8c0.7-4.4-0.7-8.9-3.9-12.1L14.4,79.8l52-7.8
	c4.8-0.7,8.9-3.7,10.9-7.9l22.6-47l22.6,47c2.1,4.2,6.1,7.2,10.9,7.9l52.1,7.8C185.6,79.8,147.4,117.9,147.4,117.9z"/>
</svg>
