<?xml version="1.0" encoding="utf-8"?>
<!-- Generator: Adobe Illustrator 20.0.0, SVG Export Plug-In . SVG Version: 6.00 Build 0)  -->
<svg version="1.1" id="Layer_1" xmlns="http://www.w3.org/2000/svg" xmlns:xlink="http://www.w3.org/1999/xlink" x="0px" y="0px"
	 viewBox="0 0 200 200" style="enable-background:new 0 0 200 200;" xml:space="preserve">
<style type="text/css">
	.st0{fill:#F4EA00;}
</style>
<path class="st0" d="M100,0C44.8,0,0,44.8,0,100s44.8,100,100,100s100-44.8,100-100S155.2,0,100,0z M100,180c-44.2,0-80-35.8-80-80
	s35.8-80,80-80s80,35.8,80,80S144.2,180,100,180z M106.7,93.3V66.7h26.7V53.3h-26.7V40H93.3v13.3H66.7v53.3h26.7v26.7H66.7v13.3
	h26.7V160h13.3v-13.3h26.7V93.3H106.7z M93.3,93.3H80V66.7h13.3V93.3z M120,133.3h-13.3v-26.7H120V133.3z"/>
</svg>
