<?xml version="1.0" encoding="utf-8"?>
<!-- Generator: Adobe Illustrator 20.0.0, SVG Export Plug-In . SVG Version: 6.00 Build 0)  -->
<svg version="1.1" id="Layer_1" xmlns="http://www.w3.org/2000/svg" xmlns:xlink="http://www.w3.org/1999/xlink" x="0px" y="0px"
	 viewBox="0 0 200 200" style="enable-background:new 0 0 200 200;" xml:space="preserve">
<style type="text/css">
	.st0{fill:#F4EA00;}
	.st1{fill:#3E5A60;}
	.st2{fill:none;stroke:#F4EA00;stroke-width:14;stroke-miterlimit:10;}
</style>
<path class="st0" d="M158.2,111.2c0,4.6-2.8,8.3-6.3,8.3s-6.3-3.7-6.3-8.3s2.8-8.3,6.3-8.3S158.2,106.7,158.2,111.2z M86,42
	c-0.4-1.2-0.5-2.2-0.4-3.2c0.2-1,0.6-2,1.3-2.9c0.7-0.9,1.6-1.8,2.6-2.5c1.1-0.7,2.2-1.4,3.5-1.8c-0.1-0.2-0.2-0.5-0.3-0.8
	c-0.1-0.3-0.1-0.6,0.1-0.9s0.4-0.5,0.7-0.7c0.4-0.1,0.7-0.1,1,0.1c0.3,0.2,0.5,0.4,0.6,0.7c0.1,0.2,0.2,0.5,0.3,0.8
	c0.8-0.2,1.7-0.3,2.8-0.3c1,0,2.1,0.1,3.1,0.5c1,0.3,1.9,0.8,2.7,1.5c0.8,0.7,1.2,1.5,1.4,2.5c0.1,0.8,0,1.5-0.3,2
	c-0.4,0.5-0.8,0.8-1.5,1c-0.6,0.1-1.1-0.1-1.5-0.5c-0.4-0.4-0.9-0.8-1.4-1.3c-0.5-0.5-1.1-0.9-1.8-1.3c-0.6-0.4-1.5-0.4-2.5-0.2
	c0.6,2.5,1.1,5.1,1.6,7.7c1.2,0.1,2.4,0.2,3.6,0.4c1.2,0.2,2.2,0.6,3.2,1c1,0.5,1.9,1.1,2.6,1.9c0.8,0.8,1.4,1.8,1.9,3.1
	c0.4,1.1,0.6,2.1,0.6,3.1c-0.2,1-0.6,1.9-1.2,2.9c-0.7,0.9-1.6,1.8-2.7,2.6c-1.1,0.8-2.4,1.5-3.9,2c0.2,0.7,0.5,1.4,0.8,2.1
	c0.1,0.3,0.1,0.5,0,0.9c-0.1,0.3-0.4,0.5-0.7,0.7c-0.4,0.1-0.7,0.1-1,0c-0.3-0.1-0.5-0.4-0.6-0.7c-0.3-0.7-0.5-1.4-0.7-2.2
	c-1.6,0.4-3.1,0.5-4.3,0.3c-1.3-0.2-2.3-0.7-3.2-1.3c-0.9-0.6-1.6-1.3-2.2-2.1c-0.6-0.8-0.9-1.6-1.1-2.4c-0.2-0.8-0.1-1.5,0.2-2
	c0.3-0.5,0.8-0.9,1.5-1c0.7-0.1,1.2-0.1,1.6,0.1c0.4,0.2,0.7,0.5,1,0.9c0.3,0.4,0.5,0.9,0.7,1.3c0.2,0.5,0.5,0.9,0.9,1.3
	c0.4,0.4,0.8,0.7,1.5,0.9c0.6,0.2,1.4,0.2,2.5,0c-0.7-2.7-1.2-5.6-1.8-8.5c-2.8-0.1-5-0.7-6.9-1.6C88,45.3,86.7,43.9,86,42z
	 M98.9,47.9c0.5,2.7,1.1,5.4,1.8,7.9c0.6-0.2,1.1-0.4,1.6-0.7c0.5-0.3,1-0.7,1.3-1.1c0.4-0.4,0.6-0.9,0.7-1.4c0.1-0.5,0.1-1.1,0-1.7
	s-0.5-1.1-0.9-1.5c-0.4-0.4-0.9-0.7-1.4-0.9c-0.5-0.2-1-0.3-1.6-0.4C99.9,48,99.4,47.9,98.9,47.9z M90.5,39.6c0.3,1,0.8,1.6,1.7,2
	c0.8,0.4,2,0.7,3.4,0.7c-0.5-2.5-1-4.9-1.6-7.1c-0.6,0.2-1.2,0.5-1.7,0.8c-0.5,0.3-0.9,0.7-1.2,1.1c-0.3,0.4-0.5,0.8-0.6,1.2
	C90.4,38.8,90.4,39.2,90.5,39.6z M199.8,115.6l-11.1,36.1c-0.5,1.8-2.2,3-4,3.1l-22.7,0.8c-0.2,0.2-0.3,0.3-0.5,0.5v25.8
	c0,2.4-2,4.4-4.4,4.4h-26.8c-1.6,0-3.1-0.9-3.9-2.3l-3.3-6.4c-7.4,1.8-15.1,2.8-23,2.8c-7.8,0-15.4-0.9-22.8-2.8l-3.3,6.4
	c-0.8,1.4-2.2,2.3-3.9,2.3H43.4c-2.4,0-4.4-2-4.4-4.4v-25.6c-7.2-7.4-12.2-16.1-14.7-25.3c-2.9-0.6-7-1.8-11-4.2
	c-7.6-4.4-12.2-11.4-13.4-20c-0.2-1.5,0.4-3,1.6-4c1.2-1,2.8-1.2,4.2-0.7c9,3.3,16.3,0.8,19.5-0.7C31.6,82.5,48,67.7,69.2,60.3
	c-2.2-4.4-3.5-9.3-3.5-14.6c0-17.6,14.3-31.9,31.9-31.9s31.9,14.3,31.9,31.9c0,4.7-1,9.1-2.8,13.1c9.8,2.9,18.8,7.3,26.6,13.2
	l10.9-4.2c0.5-0.2,1-0.3,1.6-0.3h12.7c1.5,0,2.9,0.8,3.7,2.1c0.8,1.3,0.9,2.9,0.2,4.2l-10.2,20.3c1.4,2.8,2.5,5.6,3.4,8.5l21.6,7.4
	C199.3,110.9,200.5,113.3,199.8,115.6z M74.1,45.7c0,13,10.5,23.5,23.5,23.5s23.5-10.5,23.5-23.5s-10.5-23.5-23.5-23.5
	S74.1,32.8,74.1,45.7z M190.2,117l-17.9-6.1c-0.7,0.1-1.4-0.1-2.1-0.3c-1.3-0.5-2.2-1.6-2.5-3c-0.9-3.8-2.4-7.6-4.4-11.2
	c-0.8-1.5-0.7-3.2,0.2-4.5l7.8-15.5h-4.8l-11.9,4.6c-1.5,0.8-3.4,0.7-4.8-0.4c-7.9-6.5-17.5-11.2-28-13.9c-1.5,1.7-3.1,3.3-5,4.7
	c4.5,1,9.1,2.4,13.7,4.5c2.2,1,3.2,3.5,2.2,5.8c-0.7,1.6-2.3,2.6-4,2.6c-0.6,0-1.2-0.1-1.8-0.4c-27-12-53.7-0.1-54,0
	c-2.2,1-4.8,0-5.8-2.2c-1-2.2,0-4.8,2.2-5.8c0.4-0.2,4.3-1.9,10.4-3.5c-1.9-1.3-3.6-2.8-5.2-4.4c-6.4,2-12.4,4.8-17.8,8.2
	c-11.8,7.6-20.2,18.1-23.6,29.6c-0.3,1.1-1,2-2,2.5c-1.8,1-9.7,5.2-20.4,3.9c4.5,8.3,14.3,10.2,17.8,10.6c1.9,0.2,3.4,1.6,3.7,3.5
	c1.9,9.1,6.8,17.8,14.2,25.1c0.9,0.9,1.4,2.1,1.3,3.3v22.9h19.8l3.7-7c0.3-0.6,0.7-1.2,1.3-1.6c1.1-0.8,2.5-1.1,3.8-0.7
	c7.6,2.2,15.7,3.3,23.8,3.3c8.3,0,16.3-1.1,24-3.4c1.2-0.4,2.6-0.2,3.7,0.6c0.7,0.5,1.3,1.2,1.6,2l3.5,6.8h19.8v-22.1
	c0-0.1-0.1-0.3-0.1-0.4c-0.2-1.4,0.3-2.7,1.3-3.7c1.1-1.1,2.2-2.3,3.3-3.5c0.8-1,2-1.5,3.3-1.5c0.8,0,1.5,0.2,2.1,0.6l18.6-0.7
	L190.2,117z"/>
</svg>
