<?xml version="1.0" encoding="utf-8"?>
<!-- Generator: Adobe Illustrator 20.0.0, SVG Export Plug-In . SVG Version: 6.00 Build 0)  -->
<svg version="1.1" id="Layer_1" xmlns="http://www.w3.org/2000/svg" xmlns:xlink="http://www.w3.org/1999/xlink" x="0px" y="0px"
	 viewBox="0 0 400 170" style="enable-background:new 0 0 400 170;" xml:space="preserve">
<style type="text/css">
	.st0{fill:#F4EA00;}
	.st1{fill:#3E5A60;}
	.st2{fill:none;stroke:#F4EA00;stroke-width:14;stroke-miterlimit:10;}
</style>
<g>
	<g>
		<circle class="st1" cx="324.4" cy="134.7" r="33"/>
		<path class="st1" d="M289.1,134.7c0-19.5,15.8-35.3,35.3-35.3c19.5,0,35.3,15.8,35.3,35.3c0,19.5-15.8,35.3-35.3,35.3
			C304.9,170,289.1,154.2,289.1,134.7z M293.6,134.7c0,17,13.8,30.8,30.8,30.8c17,0,30.8-13.8,30.8-30.8c0-17-13.8-30.8-30.8-30.8
			C307.4,103.9,293.6,117.7,293.6,134.7z"/>
	</g>
	<g>
		<circle class="st1" cx="70" cy="134.7" r="33"/>
		<path class="st1" d="M34.7,134.7c0-19.5,15.8-35.3,35.3-35.3c19.5,0,35.3,15.8,35.3,35.3c0,19.5-15.8,35.3-35.3,35.3
			C50.6,170,34.7,154.2,34.7,134.7z M39.3,134.7c0,17,13.8,30.8,30.8,30.8c17,0,30.8-13.8,30.8-30.8c0-17-13.8-30.8-30.8-30.8
			C53.1,103.9,39.3,117.7,39.3,134.7z"/>
	</g>
	<g>
		<path class="st1" d="M282.2,143.8c0,0-5.4-28.2,15.7-43.9c0,0,30.9-23.3,59.9,7.3c0,0,12.9,15.5,9,36.6c0,0,20.7-0.4,30.6-4.6
			v-4.6l-3.7-2.5c0,0,9.1-24.7,0-30.6c0,0,1.2-9.6,1.2-9.7c0.5-3.5-11.3-11.7-13.6-13.3c-11.8-7.9-27.8-8.7-41.5-11
			c-12.9-2.1-26.2-4.7-39.3-4.7c-19.5-14.3-40.8-32-63.5-40.4C198.3,8.3,155.4,7.6,114.9,10.3c-12.3,0.8-24.5,2-36.7,3.6
			c-6.7,0.9-13.5,1.9-20.2,3c-3.6,0.6-7.3,1.2-10.9,1.9c-1.7,0.3-8.8,2.8-10,2c0,0,5.5,4.6,5.5,4.6S28.5,41.5,20.2,54
			c0,0-15.7,0.2-11.6,32.6c0,0-3.9,9.2-0.7,22.1l-5.1,1.2c0,0-2.9,13.2,5,19.9c0,0,3.9,2.9,19.2,4.9c0,0-0.1-24.5,20.6-37.8
			c0,0,28.6-17,53.8,6.6c0,0,14.4,15.9,12.3,37.8C113.6,141.3,261.9,144.6,282.2,143.8z"/>
		<path class="st1" d="M113.6,143.6l-2.4-0.1l0.2-2.4c1.9-20-10.7-34.9-11.7-36C89.8,95.9,78.3,92,65.4,93.6
			c-9.5,1.2-16.2,5-16.7,5.2c-8.1,5.2-13.8,12.7-17,22.5c-2.4,7.4-2.5,13.3-2.5,13.4l0,2.6l-2.6-0.4c-15.5-2.1-19.8-5-20.2-5.4
			l-0.1-0.1c-8.8-7.4-5.9-21.5-5.7-22.1l0.3-1.4l4.3-1.1C3.1,96.4,5.5,88.5,6.3,86.3c-1.7-14,0-24.1,5.1-29.9
			c2.8-3.2,5.9-4.2,7.6-4.5c6.7-9.8,16.6-21.7,20.4-26.2l-3.7-3.1l2.7-3.7c-0.3-0.2-0.5-0.2-0.5-0.2c1,0.1,4.7-1,6.3-1.4
			c1.2-0.3,2-0.6,2.6-0.7c3.6-0.7,7.3-1.3,10.9-1.9c6.6-1.1,13.4-2.1,20.3-3c12-1.6,24.4-2.8,36.9-3.6c24-1.6,43.7-1.7,62.1-0.2
			c22.8,1.8,42.8,6,61,12.7c19.3,7.2,37.2,20.6,54.4,33.5c3.1,2.3,6.1,4.5,9,6.7c11.6,0.1,23.4,2.1,34.7,4c1.4,0.2,2.8,0.5,4.2,0.7
			c2.5,0.4,5.1,0.8,7.8,1.2c12.1,1.7,24.5,3.5,34.5,10.2c1.6,1,5,3.5,8,6c4.9,4.2,6.9,7,6.6,9.4l0,0c0,0.2-0.2,1.3-1.1,8.4
			c3.7,3.3,4.8,9.6,3.2,18.9c-0.8,4.9-2.2,9.4-2.9,11.8l3.3,2.2v7.3l-1.4,0.6c-10.2,4.3-30.6,4.7-31.5,4.7l-2.8,0.1l0.5-2.8
			c3.6-19.2-7.7-33.7-8.4-34.6c-11.4-12-24.4-16.9-38.5-14.4c-10.7,1.8-18.2,7.4-18.3,7.4c-8.2,6.1-13.2,14.9-14.9,26.2
			c-1.3,8.5,0,15.4,0,15.4l0.5,2.6l-2.6,0.1c-2.3,0.1-6.2,0.1-11.3,0.1C231.3,146.2,118.9,143.7,113.6,143.6z M279.8,127.5
			c1.8-12.4,7.5-22.5,16.7-29.3c0.3-0.3,8.3-6.2,20.1-8.3c10.9-1.9,27.2-0.7,42.9,15.8l0.1,0.1c0.5,0.6,12.5,15.2,9.9,35.7
			c5.5-0.3,18.1-1.1,25.7-3.7v-1.8l-4.2-2.8l0.6-1.7c2.2-6,7.1-23.9,0.9-27.9l-1.2-0.8l0.2-1.4c0,0,1.1-8.6,1.2-9.6
			c-0.4-1.7-6.3-7-12.6-11.2c-9.1-6.1-21.1-7.8-32.6-9.4c-2.6-0.4-5.4-0.8-7.9-1.2c-1.4-0.2-2.8-0.5-4.3-0.7
			c-11.4-1.9-23.2-3.9-34.7-3.9h-0.7l-0.6-0.4c-3.2-2.3-6.3-4.7-9.7-7.2c-17-12.8-34.6-25.9-53.3-32.9
			c-17.8-6.6-37.4-10.7-59.8-12.5c-18.2-1.4-37.7-1.4-61.4,0.2c-12.4,0.8-24.7,2-36.6,3.6c-6.8,0.9-13.5,1.9-20.1,3
			c-3.6,0.6-7.3,1.3-10.8,1.9c-0.3,0.1-1.3,0.3-2.1,0.6c-1,0.3-2,0.6-2.8,0.8l3.3,2.7l-1.5,1.8c-0.1,0.2-14.1,16.2-22.2,28.3l-0.6,1
			l-1.2,0c-0.1,0-3,0.1-5.6,3.2c-2.9,3.4-5.8,10.8-3.8,26.8l0.1,0.6l-0.2,0.6c0,0.1-3.5,8.8-0.6,20.7l0.6,2.2l-5.9,1.4
			c-0.4,3.3-0.9,11.7,4.3,16.2c0.5,0.3,4.3,2.4,15.7,4.2c0.2-2.6,0.8-7,2.5-12c3.5-10.7,10.1-19.4,19-25.1l0.1,0
			c0.3-0.2,7.7-4.5,18.3-5.8c9.9-1.2,24.5,0,38.2,12.8l0.1,0.1c0.6,0.7,14,15.7,13,37.1c18.5,0.4,138.1,3,163.5,2.5
			C279.2,138.7,279,133.5,279.8,127.5z"/>
	</g>
</g>
</svg>
