<?xml version="1.0" encoding="utf-8"?>
<!-- Generator: Adobe Illustrator 20.0.0, SVG Export Plug-In . SVG Version: 6.00 Build 0)  -->
<svg version="1.1" id="Layer_1" xmlns="http://www.w3.org/2000/svg" xmlns:xlink="http://www.w3.org/1999/xlink" x="0px" y="0px"
	 viewBox="0 0 400 170" style="enable-background:new 0 0 400 170;" xml:space="preserve">
<style type="text/css">
	.st0{fill:#F4EA00;}
	.st1{fill:#3E5A60;}
	.st2{fill:none;stroke:#F4EA00;stroke-width:14;stroke-miterlimit:10;}
</style>
<g>
	<g>
		<circle class="st1" cx="83.6" cy="141" r="26.7"/>
		<path class="st1" d="M54.6,141c0-16,13-29,29-29c16,0,29,13,29,29s-13,29-29,29C67.6,170,54.6,157,54.6,141z M59.2,141
			c0,13.5,11,24.4,24.4,24.4c13.5,0,24.4-11,24.4-24.4s-11-24.4-24.4-24.4C70.2,116.5,59.2,127.5,59.2,141z"/>
	</g>
	<g>
		<circle class="st1" cx="329.1" cy="141" r="26.7"/>
		<path class="st1" d="M300,141c0-16,13-29,29-29s29,13,29,29s-13,29-29,29S300,157,300,141z M304.7,141c0,13.5,11,24.4,24.4,24.4
			c13.5,0,24.4-11,24.4-24.4s-11-24.4-24.4-24.4C315.6,116.5,304.7,127.5,304.7,141z"/>
	</g>
	<g>
		<path class="st1" d="M116.4,150.9l178.5,2.3c0,0-6.6-38.6,25.1-45.9c0,0,26.1-6.3,39.6,16.5c0,0,7.9,10.6,3.3,31
			c0,0,25.7-0.3,29,0c0,0,3-0.3,7.9-5.6c0,0-3.3-6.3,0-14.2c0,0,2.3-19.5-14.2-26.1c0,0-11.5-29.7-34-32.3
			c-14.9-1.8-29.7-4.4-44.3-7.6c-10.2-2.2-20.9-4.6-30.3-9.2c-12.5-6.2-23.5-14-36.8-18.8c-22.5-8.1-46.8-10.1-70.6-9.8
			c-22.7,0.2-45.6,1.2-67.1,8.5c0,0-40.3,13.5-40.3,13.5s-17.2,7.9-46.5,10.6c0,0-3.3,0.3-3,5.9c0,0-6.3,14.9-5.3,33
			c0,0-12.2,11.2-5.6,27.4c0,0-4,9.9,9.6,13.2c0,0,31.4,5.4,38.9,4c0,0-7.3-26.4,19.8-38.6c0,0,28-11.2,42.2,14.2
			C112.5,122.8,120.4,133.4,116.4,150.9z"/>
		<path class="st1" d="M173.6,35.8c12.2,0,23.1,0.7,33.2,2c11.7,1.6,22.2,4.1,32,7.6c8.1,2.9,15.3,7,23,11.3
			c4.3,2.4,8.7,4.9,13.3,7.2c9.6,4.8,20.3,7.1,30.6,9.4l0.8,0.2c14.6,3.2,29.7,5.8,44.8,7.7l0,0l0,0c4.3,0.5,8.5,2.3,12.6,5.3
			c3.4,2.5,6.6,5.9,9.7,10c5.3,7.2,8,14.1,8,14.1l0.7,1.9l1.9,0.7c5.3,2.1,8.8,6.2,10.5,12.1c1,3.8,1,7.3,0.9,8.6
			c-1.5,3.8-1.9,7.9-1.2,11.9c0.1,0.8,0.3,1.5,0.5,2.2c-1.5,1.4-2.6,1.9-3.1,2.2c-1.2-0.1-3.5-0.1-8.5-0.1c-4.8,0-10.4,0-14.5,0.1
			c0.9-7,0.6-13.8-1-19.7c-1.4-5.2-3.3-8.3-4-9.2c-4.4-7.3-10.3-12.6-17.7-15.9c-5.3-2.3-11.3-3.5-17.6-3.5c-5.1,0-8.8,0.8-9.2,0.9
			c-14.8,3.4-24.5,13.5-27.9,29.2c-1.4,6.4-1.5,12.4-1.2,16.5l-168-2.2c1.6-14.7-4.2-24.2-5.5-26c-3.9-6.8-9-11.9-15.3-15.1
			c-5-2.5-10.6-3.8-16.7-3.8c-8.8,0-15.6,2.7-15.9,2.8l-0.1,0l-0.1,0c-15.8,7.1-21,18.7-22.7,27.2c-0.8,4.3-0.8,8.2-0.6,11.2
			c-10.6-0.4-30.6-3.7-32.6-4.1c-2.2-0.6-5-1.6-6-3.6c-0.8-1.6-0.2-3.4-0.2-3.4l0.7-1.7l-0.7-1.7c-5.2-12.8,3.9-21.7,4.5-22.2
			l1.6-1.5l-0.2-2.2c-0.9-16.8,4.9-30.8,4.9-31l0.4-1l-0.1-1.1c0-0.5,0-0.9,0-1.2C45,65.6,61.7,58.5,64,57.5
			c3.1-1,37.4-12.6,39.9-13.4l0.1,0c21.3-7.2,44.1-8,65.7-8.2C171,35.8,172.3,35.8,173.6,35.8 M173.6,31.1c-1.3,0-2.6,0-3.9,0
			c-22.7,0.2-45.6,1.2-67.1,8.5c0,0-40.3,13.5-40.3,13.5s-17.2,7.9-46.5,10.6c0,0-3.3,0.3-3,5.9c0,0-6.3,14.9-5.3,33
			c0,0-12.2,11.2-5.6,27.4c0,0-4,9.9,9.6,13.2c0,0,24.6,4.2,35.5,4.2c1.4,0,2.6-0.1,3.5-0.2c0,0-7.3-26.4,19.8-38.6
			c0,0,6.2-2.5,14.2-2.5c9.1,0,20.5,3.2,28.1,16.7c0,0,7.9,10.6,4,28.1l178.5,2.3c0,0-6.6-38.6,25.1-45.9c0,0,3.3-0.8,8.1-0.8
			c8.8,0,22.7,2.6,31.5,17.3c0,0,7.9,10.6,3.3,31c0,0,11.4-0.1,20-0.1c4.3,0,7.9,0,9,0.1c0,0,3-0.3,7.9-5.6c0,0-3.3-6.3,0-14.2
			c0,0,2.3-19.5-14.2-26.1c0,0-11.5-29.7-34-32.3c-14.9-1.8-29.7-4.4-44.3-7.6c-10.2-2.2-20.9-4.6-30.3-9.2
			c-12.5-6.2-23.5-14-36.8-18.8C219,33.4,196.1,31.1,173.6,31.1L173.6,31.1z"/>
	</g>
</g>
</svg>
