<?xml version="1.0" encoding="utf-8"?>
<!-- Generator: Adobe Illustrator 20.0.0, SVG Export Plug-In . SVG Version: 6.00 Build 0)  -->
<svg version="1.1" id="Layer_1" xmlns="http://www.w3.org/2000/svg" xmlns:xlink="http://www.w3.org/1999/xlink" x="0px" y="0px"
	 viewBox="0 0 400 170" style="enable-background:new 0 0 400 170;" xml:space="preserve">
<style type="text/css">
	.st0{fill:#F4EA00;}
	.st1{fill:#3E5A60;}
	.st2{fill:none;stroke:#F4EA00;stroke-width:14;stroke-miterlimit:10;}
</style>
<g>
	<g>
		<circle class="st1" cx="338.3" cy="140.7" r="26.9"/>
		<path class="st1" d="M309,140.7c0-16.1,13.1-29.3,29.3-29.3c16.1,0,29.3,13.1,29.3,29.3S354.4,170,338.3,170
			C322.2,170,309,156.9,309,140.7z M313.7,140.7c0,13.5,11,24.6,24.6,24.6c13.5,0,24.6-11,24.6-24.6s-11-24.6-24.6-24.6
			C324.8,116.2,313.7,127.2,313.7,140.7z"/>
	</g>
	<g>
		<circle class="st1" cx="74" cy="140.7" r="26.9"/>
		<path class="st1" d="M44.8,140.7c0-16.1,13.1-29.3,29.3-29.3s29.3,13.1,29.3,29.3S90.2,170,74,170S44.8,156.9,44.8,140.7z
			 M49.5,140.7c0,13.5,11,24.6,24.6,24.6s24.6-11,24.6-24.6s-11-24.6-24.6-24.6S49.5,127.2,49.5,140.7z"/>
	</g>
	<g>
		<path class="st1" d="M303.5,151.9c0,0-3.7-27.7,13.4-38.1c0,0,25.7-21.3,51.1,5.6c0,0,11.4,11,2.3,34.1c0,0,21.6,1.1,21.6-12.7
			h3.8c0,0,5.7-4.3,4.2-21.7c0,0-34.1-39.7-125.6-38.2c-1.1,0-4-2.6-4.9-3.2c-4.7-2.8-9.5-5.4-14.4-7.8
			c-16.4-8.1-33.9-14.2-51.8-18.1c-28-6.1-57.2-5.9-85.1,0.7c-26.1,6.1-50.3,18.1-76.5,24.3c-11,2.6-22.3,4.7-33.6,4.9
			c0,0-7.6,12.1,0,25c0,0-10.2,1.8-7.2,7.3c0,0-1.1,7.4,3.8,9.7c0,0-1.5,20.1,12.9,22.3c0,0,14.5,3.4,22.3,1.1
			c-0.2,0.1-0.7-7.7-0.7-8.2c0.1-5.4,1.5-10.6,3.9-15.5c4.4-8.9,13.3-15.3,23-17.2c16.5-3.4,37,5.1,42.1,22.1
			c1.5,5.1,1.8,10.6,1.8,15.9c0,2.2-0.4,4.4-0.8,6.5c7.7-1.1,16.2-0.1,23.9,0c14,0.1,28,0.2,42,0.3c31.5,0.2,63,0.5,94.6,0.7
			C271.2,151.6,303.4,151.1,303.5,151.9z"/>
		<path class="st1" d="M161.8,52c13.5,0,27,1.4,40.2,4.3C219.5,60,236.5,66,252.7,74c5.2,2.5,9.7,5,14,7.6c0.2,0.1,0.6,0.4,0.8,0.6
			c2.4,1.9,4.3,3.2,6.6,3.2c0,0,0.1,0,0.1,0c1.7,0,3.3,0,5,0c19.7,0,38.1,2,54.8,5.9c13.3,3.1,25.5,7.4,36.3,12.8
			c14.5,7.2,22.3,14.3,24.9,16.9c0.6,8.8-1,13.2-1.9,15h-1.5c-2.6,0-4.7,2.1-4.7,4.7c0,2-0.6,4.6-5.5,6.4c-1.5,0.6-3.2,0.9-4.7,1.2
			c5.3-20.3-4.2-30.9-5.5-32.2c-5-5.3-10.4-9.2-16-11.7c-4.9-2.2-10.1-3.3-15.4-3.3c-13.7,0-23.8,7.4-25.7,8.9
			c-14.3,8.9-15.9,27.5-15.7,36.9c-2.1,0-4.8-0.1-8-0.1c-6.3,0-13.4,0.1-17.7,0.1c-1.7,0-3,0-3.4,0l-0.1,0l-93.2-0.7l-1.4,0l-21-0.2
			l-21-0.2c-2.3,0-4.7-0.1-7.2-0.2c-2.8-0.1-5.7-0.3-8.6-0.3c-1,0-1.9,0-2.8,0c0-0.4,0-0.8,0-1.3c0-4.8-0.2-11.1-2-17.3
			c-2.4-8-7.7-14.7-15.5-19.5c-6.9-4.3-15.4-6.7-23.7-6.7c-2.8,0-5.7,0.3-8.3,0.8c-5.5,1.1-10.8,3.5-15.3,6.9
			c-4.7,3.5-8.4,7.9-10.9,12.9c-2.8,5.5-4.3,11.4-4.4,17.5c0,0.6,0.2,3.4,0.2,4.3c-0.5,0-1.1,0-1.7,0c-6.7,0-14.3-1.8-14.4-1.8
			c-0.1,0-0.2-0.1-0.4-0.1c-1.5-0.2-6-0.9-8-8.6c-1.2-4.4-0.9-8.7-0.9-8.7c0.1-2-0.9-3.8-2.7-4.6c-1.1-0.5-1.3-3.3-1.1-4.8
			c0.1-0.8,0.1-1.5-0.2-2.2c0.8-0.5,2.3-1,3.5-1.2c1.5-0.3,2.8-1.2,3.5-2.6c0.7-1.4,0.6-3-0.2-4.4c-2.5-4.2-3.3-8.8-2.3-13.7
			c0.3-1.7,0.8-3.2,1.3-4.3c9.3-0.4,19.2-2,31.7-4.9c13.3-3.1,26.2-7.8,38.7-12.3c12.3-4.4,24.9-9,37.7-12
			C132.9,53.6,147.4,52,161.8,52 M161.8,47.3c-14.8,0-29.5,1.7-44,5.1c-26.1,6.1-50.3,18.1-76.5,24.3c-11,2.6-22.3,4.7-33.6,4.9
			c0,0-7.6,12.1,0,25c0,0-10.2,1.8-7.2,7.3c0,0-1.1,7.4,3.8,9.7c0,0-1.5,20.1,12.9,22.3c0,0,8.1,1.9,15.5,1.9c2.5,0,4.9-0.2,6.8-0.8
			c0,0,0,0,0,0c-0.2,0-0.7-7.7-0.7-8.2c0.1-5.4,1.5-10.6,3.9-15.5c4.4-8.9,13.3-15.3,23-17.2c2.4-0.5,4.9-0.7,7.4-0.7
			c14.8,0,30.4,8.3,34.7,22.8c1.5,5.1,1.8,10.6,1.8,15.9c0,2.2-0.4,4.4-0.8,6.5c2.7-0.4,5.4-0.5,8.2-0.5c5.3,0,10.7,0.4,15.7,0.5
			c14,0.1,28,0.2,42,0.3c31.5,0.2,63,0.5,94.6,0.7c0,0,0.1,0,0.1,0c1.6,0,12.1-0.1,21.1-0.1c7,0,13,0.1,13,0.4
			c0,0-3.7-27.7,13.4-38.1c0,0,9.7-8,23-8c8.4,0,18.3,3.2,28.1,13.6c0,0,11.4,11,2.3,34.1c0,0,0.4,0,1.1,0c4.4,0,20.5-0.8,20.5-12.7
			h3.8c0,0,5.7-4.3,4.2-21.7c0,0-32.8-38.3-120.5-38.3c-1.7,0-3.4,0-5.1,0c0,0,0,0,0,0c-1.2,0-4-2.6-4.9-3.2
			c-4.7-2.8-9.5-5.4-14.4-7.8c-16.4-8.1-33.9-14.2-51.8-18.1C189.4,48.7,175.6,47.3,161.8,47.3L161.8,47.3z"/>
	</g>
</g>
</svg>
