<?xml version="1.0" encoding="utf-8"?>
<!-- Generator: Adobe Illustrator 20.0.0, SVG Export Plug-In . SVG Version: 6.00 Build 0)  -->
<svg version="1.1" id="Layer_1" xmlns="http://www.w3.org/2000/svg" xmlns:xlink="http://www.w3.org/1999/xlink" x="0px" y="0px"
	 viewBox="0 0 200 200" style="enable-background:new 0 0 200 200;" xml:space="preserve">
<style type="text/css">
	.st0{fill:#F4EA00;}
</style>
<path class="st0" d="M196.3,66.2L133.8,3.7c-3.1-3.1-7.6-4.3-11.8-3.3c-2.2,0.5-4.2,1.7-5.8,3.3c-1.4,1.4-2.5,3.2-3.1,5.1
	c-2.8,9.2-7.7,17.2-15,24.4c-9.7,9.7-22.3,17-35.6,24.7c-14.1,8.2-28.8,16.7-40.7,28.7C11.6,96.8,4.6,108.1,0.6,121.3
	c-1.4,4.4-0.2,9.2,3.1,12.5l62.5,62.5c3.1,3.1,7.6,4.3,11.8,3.3c2.2-0.6,4.2-1.7,5.8-3.3c1.4-1.4,2.5-3.2,3.1-5.1
	c2.8-9.2,7.7-17.2,15-24.4c9.7-9.7,22.3-17,35.6-24.7c14.1-8.2,28.8-16.7,40.7-28.7c10.2-10.2,17.1-21.5,21.2-34.7
	C200.8,74.3,199.6,69.4,196.3,66.2z M75,187.5c-20.7-20.7-41.8-41.8-62.5-62.5C30.3,67.5,107.2,70,125,12.5
	c20.7,20.7,41.8,41.8,62.5,62.5C169.7,132.5,92.8,130,75,187.5z M122.3,93.1c-2-1.7-4.1-2.9-6.1-3.4c-2-0.6-4.1-0.8-6.2-0.7
	c-2,0.2-4.1,0.6-6.2,1.4c-2.1,0.8-4.2,1.7-6.3,2.7C94,89.3,90.6,85.5,87.3,82c1.5-1.4,3-2.1,4.4-2.1c1.4-0.1,2.8,0.1,4.1,0.4
	c1.3,0.3,2.5,0.6,3.6,0.8c1.1,0.2,2.1,0,3-0.7c0.9-0.8,1.4-1.8,1.5-3c0.1-1.2-0.4-2.4-1.4-3.6c-1.3-1.5-2.9-2.4-4.8-2.8
	c-1.9-0.3-3.8-0.3-5.8,0.1c-2,0.4-3.9,1.2-5.6,2.2c-1.8,1-3.2,2.1-4.3,3.2c-0.4-0.4-0.8-0.8-1.2-1.1c-0.4-0.4-1-0.6-1.7-0.6
	c-0.7,0-1.2,0.3-1.7,0.8c-0.4,0.5-0.7,1.1-0.6,1.8c0.1,0.7,0.3,1.2,0.8,1.6c0.4,0.3,0.8,0.7,1.2,1c-1.6,1.9-2.9,4.1-4,6.3
	c-1,2.3-1.7,4.5-1.9,6.7c-0.2,2.2,0,4.2,0.7,6c0.7,1.9,1.9,3.5,3.7,5c2.9,2.4,6.4,3.5,10.4,3.2c4-0.2,8.3-1.4,13-3.9
	c3.7,4.3,7.4,8.5,11.1,12.4c-1.6,1.3-2.9,2.1-4.1,2.3c-1.2,0.3-2.3,0.2-3.3-0.1c-1-0.3-1.9-0.7-2.7-1.3c-0.8-0.6-1.6-1.1-2.5-1.5
	c-0.8-0.4-1.6-0.6-2.5-0.6c-0.8,0-1.8,0.4-2.8,1.3c-1,0.9-1.5,1.9-1.5,3.1c0,1.2,0.5,2.3,1.6,3.5c1.1,1.2,2.4,2.2,4.1,3
	c1.7,0.8,3.6,1.3,5.6,1.4c2.1,0.1,4.3-0.2,6.6-1c2.3-0.8,4.6-2.4,6.9-4.6c1.1,1.1,2.2,2.1,3.3,3c0.5,0.4,1,0.6,1.7,0.5
	c0.7,0,1.2-0.3,1.7-0.9c0.5-0.6,0.7-1.2,0.6-1.8c-0.1-0.7-0.3-1.2-0.8-1.5c-1.1-0.9-2.2-1.8-3.3-2.8c1.9-2.3,3.4-4.7,4.5-7.1
	c1.1-2.4,1.8-4.7,2-6.9c0.2-2.2,0-4.1-0.7-5.9C125.3,96.1,124,94.6,122.3,93.1z M87.3,97.4c-1.8,0.1-3.3-0.5-4.7-1.8
	c-0.6-0.5-1-1.2-1.2-2c-0.3-0.8-0.3-1.7-0.2-2.6C81.3,90,81.6,89,82,88c0.5-1,1.1-2,2-2.9c3.2,3.1,6.3,6.6,9.5,10.2
	C91.2,96.6,89.1,97.3,87.3,97.4z M116.8,109.9c-0.6,1-1.2,2-2,2.8c-3.5-3.5-7-7.4-10.5-11.4c0.9-0.4,1.8-0.8,2.8-1.2
	c1-0.4,2-0.7,3-0.9c1-0.2,2.1-0.1,3.1,0.1c1,0.3,2,0.8,2.9,1.7c0.9,0.9,1.4,1.8,1.7,2.8c0.2,1,0.3,2,0.1,3
	C117.7,107.8,117.4,108.8,116.8,109.9z M92,138.6c1.2-1,3-0.9,4.2,0.2c1.2,1.2,1.2,3.2,0,4.4c-0.1,0.1-0.2,0.2-0.3,0.3l0,0
	c-4,3-7.2,5.7-10.7,9.2c-3.2,3.2-6,6.5-8.5,9.9l-4,5.5c-0.1,0.2-0.3,0.4-0.5,0.6c-1.2,1.2-3.2,1.2-4.4,0c-1.1-1.1-1.2-2.7-0.4-3.9
	l0,0l4.3-5.8c2.7-3.6,5.7-7.2,9.1-10.6C84.2,144.8,88.1,141.6,92,138.6C92,138.6,92,138.6,92,138.6z M114.9,48.2
	c3.2-3.2,6-6.5,8.5-9.9l4.1-5.7c0.1-0.3,0.3-0.5,0.5-0.8c1.2-1.2,3.2-1.2,4.5,0c1.2,1.2,1.2,3,0.2,4.3l0,0l-4.3,5.9
	c-2.7,3.6-5.7,7.2-9.1,10.6c-3.5,3.5-7.3,6.7-11.2,9.7l0,0c-1.2,1.1-3.2,1.1-4.4-0.1c-1.2-1.2-1.2-3.2,0-4.5
	c0.2-0.2,0.5-0.4,0.7-0.5C108,54.4,111.6,51.5,114.9,48.2z"/>
</svg>
