<?xml version="1.0" encoding="utf-8"?>
<!-- Generator: Adobe Illustrator 20.0.0, SVG Export Plug-In . SVG Version: 6.00 Build 0)  -->
<svg version="1.1" id="Layer_1" xmlns="http://www.w3.org/2000/svg" xmlns:xlink="http://www.w3.org/1999/xlink" x="0px" y="0px"
	 viewBox="0 0 200 200" style="enable-background:new 0 0 200 200;" xml:space="preserve">
<style type="text/css">
	.st0{fill:#F4EA00;}
</style>
<path class="st0" d="M177.2,37.3L96.5,1.4c-8.4-3.7-18.1,0-21.8,8.4l-58.3,131c-3.7,8.4,0,18.1,8.4,21.8l80.6,35.9
	c8.3,3.7,18.1-0.1,21.8-8.4l58.3-131C189.3,50.8,185.5,41,177.2,37.3z M117.2,185.7c-1.2,2.8-4.5,4-7.3,2.8l-80.6-35.9
	c-2.8-1.2-4-4.5-2.8-7.3l4.5-10.1l90.7,40.3L117.2,185.7z M124,170.6l-90.7-40.3L78,29.4l90.7,40.3L124,170.6z M171,64.7L80.3,24.4
	l4.5-10.1c1.2-2.8,4.5-4,7.3-2.8l80.6,35.9c2.8,1.2,4,4.5,2.8,7.3L171,64.7z M139.1,41.5c-0.6,1.4-2.3,2-3.6,1.4l-15.1-6.7
	c-1.4-0.6-2-2.2-1.4-3.6l0,0c0.6-1.4,2.2-2,3.6-1.4l15.1,6.7C139.1,38.5,139.7,40.1,139.1,41.5L139.1,41.5z M78,165.2
	c-0.6,1.4-2.3,2-3.6,1.4l-5-2.2c-1.4-0.6-2-2.3-1.4-3.6l0,0c0.6-1.4,2.2-2,3.6-1.4l5,2.2C78,162.2,78.7,163.8,78,165.2L78,165.2z"/>
</svg>
