<?xml version="1.0" encoding="utf-8"?>
<!-- Generator: Adobe Illustrator 20.0.0, SVG Export Plug-In . SVG Version: 6.00 Build 0)  -->
<svg version="1.1" id="Layer_1" xmlns="http://www.w3.org/2000/svg" xmlns:xlink="http://www.w3.org/1999/xlink" x="0px" y="0px"
	 viewBox="0 0 200 200" style="enable-background:new 0 0 200 200;" xml:space="preserve">
<style type="text/css">
	.st0{fill:#F4EA00;}
</style>
<path class="st0" d="M113.5,139.6v20.8c0,1.2-0.4,2.2-1.1,3c-0.7,0.8-1.6,1.2-2.8,1.2H90.4c-1.1,0-2-0.4-2.8-1.2
	c-0.7-0.8-1.1-1.8-1.1-3v-20.8c0-1.2,0.4-2.2,1.1-3c0.7-0.8,1.6-1.2,2.8-1.2h19.2c1.1,0,2,0.4,2.8,1.2
	C113.1,137.4,113.5,138.4,113.5,139.6z M144.2,75c0,4.3-0.6,8.2-1.8,11.7c-1.2,3.5-3,6.5-5.5,9c-2.4,2.5-4.5,4.4-6.3,5.7
	c-1.7,1.3-4.1,2.9-7.2,4.7c-2.6,1.6-4.4,2.8-5.6,3.6s-2.2,1.9-3.1,3.1c-0.9,1.2-1.4,2.5-1.4,3.8v4.2c0,1.2-0.4,2.2-1.1,3
	c-0.7,0.8-1.6,1.2-2.8,1.2H90.4c-1.1,0-2-0.4-2.8-1.2c-0.7-0.8-1.1-1.8-1.1-3V112c0-3,0.4-5.8,1.3-8.4s1.8-4.6,2.9-6.2
	c1.1-1.6,2.6-3.1,4.7-4.6c2-1.5,3.7-2.6,4.9-3.3c1.2-0.7,3-1.6,5.4-2.7c4.2-2.2,7.2-4,9-5.6s2.6-3.7,2.6-6.4c0-3.6-1.7-6.7-5.2-9.3
	c-3.5-2.6-7.3-3.8-11.5-3.8c-4.5,0-8.3,1.2-11.4,3.5c-2.3,1.7-5.5,5.3-9.6,10.8c-0.7,1-1.7,1.6-3,1.6c-0.9,0-1.6-0.3-2.3-0.8
	L61.3,66c-0.8-0.6-1.3-1.5-1.4-2.6c-0.2-1.1,0-2.1,0.6-3c9.8-16.7,23.8-25,41.9-25c10.3,0,19.9,3.9,28.7,11.7S144.2,64.1,144.2,75
	L144.2,75z M100,16.7c-10.4,0-20.4,2.2-29.9,6.6S52.5,33.7,45.6,41.1S33.3,57.4,29.2,67.6s-6.1,21.1-6.1,32.4s2,22.1,6.1,32.4
	c4.1,10.3,9.6,19.1,16.4,26.6c6.9,7.4,15,13.3,24.5,17.8s19.4,6.6,29.9,6.6c10.4,0,20.4-2.2,29.9-6.6c9.5-4.4,17.7-10.4,24.5-17.8
	c6.9-7.4,12.3-16.3,16.4-26.6s6.1-21.1,6.1-32.4s-2-22.1-6.1-32.4c-4.1-10.3-9.6-19.1-16.4-26.6s-15-13.3-24.5-17.8
	S110.4,16.7,100,16.7L100,16.7z M192.3,100c0,18.1-4.1,34.9-12.4,50.2c-8.3,15.3-19.4,27.5-33.6,36.4c-14.1,8.9-29.6,13.4-46.3,13.4
	s-32.2-4.5-46.3-13.4c-14.1-8.9-25.3-21.1-33.6-36.4S7.7,118.1,7.7,100c0-18.1,4.1-34.9,12.4-50.2s19.4-27.5,33.6-36.4S83.3,0,100,0
	s32.2,4.5,46.3,13.4c14.1,8.9,25.3,21.1,33.6,36.4C188.2,65.1,192.3,81.9,192.3,100z"/>
</svg>
