<?xml version="1.0" encoding="utf-8"?>
<!-- Generator: Adobe Illustrator 20.0.0, SVG Export Plug-In . SVG Version: 6.00 Build 0)  -->
<svg version="1.1" id="Layer_1" xmlns="http://www.w3.org/2000/svg" xmlns:xlink="http://www.w3.org/1999/xlink" x="0px" y="0px"
	 viewBox="0 0 200 200" style="enable-background:new 0 0 200 200;" xml:space="preserve">
<style type="text/css">
	.st0{fill:#F4EA00;}
</style>
<path class="st0" d="M101.8,189.3c0-1.2-0.6-1.8-1.8-1.8c-4.4,0-8.2-1.6-11.3-4.7c-3.2-3.2-4.7-6.9-4.7-11.3c0-1.2-0.6-1.8-1.8-1.8
	s-1.8,0.6-1.8,1.8c0,5.4,1.9,10.1,5.8,13.9c3.8,3.8,8.5,5.7,13.9,5.8C101.2,191.1,101.8,190.5,101.8,189.3L101.8,189.3z M27.5,157.1
	h145.1c-19.8-22.3-29.7-53.3-29.7-92.9c0-3.8-0.9-7.7-2.7-11.7c-1.8-4-4.4-7.8-7.7-11.5c-3.3-3.6-7.9-6.6-13.6-9
	c-5.7-2.3-12-3.5-18.9-3.5c-6.9,0-13.2,1.2-18.9,3.5s-10.2,5.3-13.6,9s-5.9,7.5-7.7,11.5c-1.8,4-2.7,7.9-2.7,11.7
	C57.1,103.9,47.2,134.8,27.5,157.1L27.5,157.1z M192.9,157.1c0,3.9-1.4,7.2-4.2,10s-6.2,4.2-10,4.2h-50c0,7.9-2.8,14.6-8.4,20.2
	c-5.6,5.6-12.3,8.4-20.2,8.4c-7.9,0-14.6-2.8-20.2-8.4c-5.6-5.6-8.4-12.3-8.4-20.2h-50c-3.9,0-7.2-1.4-10-4.2s-4.2-6.2-4.2-10
	c3.7-3.1,7.1-6.4,10.2-9.8c3.1-3.4,6.2-7.9,9.5-13.3c3.3-5.5,6-11.4,8.3-17.7c2.3-6.3,4.1-14,5.6-23s2.2-18.7,2.2-29
	c0-11.3,4.4-21.8,13.1-31.5S76,17.1,90.2,15.1c-0.6-1.4-0.9-2.9-0.9-4.4c0-3,1-5.5,3.1-7.6C94.5,1,97,0,100,0c3,0,5.5,1,7.6,3.1
	s3.1,4.6,3.1,7.6c0,1.5-0.3,2.9-0.9,4.4c14.1,2.1,25.6,8,34.3,17.7s13.1,20.2,13.1,31.5c0,10.3,0.7,20,2.2,29c1.5,9,3.3,16.7,5.6,23
	s5,12.2,8.3,17.7c3.3,5.5,6.4,9.9,9.5,13.3S189.1,154,192.9,157.1L192.9,157.1z"/>
</svg>
