<?xml version="1.0" encoding="utf-8"?>
<!-- Generator: Adobe Illustrator 20.0.0, SVG Export Plug-In . SVG Version: 6.00 Build 0)  -->
<svg version="1.1" id="Layer_1" xmlns="http://www.w3.org/2000/svg" xmlns:xlink="http://www.w3.org/1999/xlink" x="0px" y="0px"
	 viewBox="0 0 200 200" style="enable-background:new 0 0 200 200;" xml:space="preserve">
<style type="text/css">
	.st0{fill:#F4EA00;}
</style>
<path class="st0" d="M38.5,161.5c0-2.1-0.8-3.9-2.3-5.4c-1.5-1.5-3.3-2.3-5.4-2.3c-2.1,0-3.9,0.8-5.4,2.3c-1.5,1.5-2.3,3.3-2.3,5.4
	c0,2.1,0.8,3.9,2.3,5.4c1.5,1.5,3.3,2.3,5.4,2.3s3.9-0.8,5.4-2.3C37.7,165.4,38.5,163.6,38.5,161.5z M176.9,92.3
	c0-4.1-1.6-7.7-4.7-10.8c-3.1-3.1-6.7-4.6-10.7-4.6h-42.3c0-4.6,1.9-11,5.8-19.2c3.8-8.1,5.8-14.6,5.8-19.3c0-7.9-1.3-13.7-3.8-17.4
	c-2.6-3.8-7.7-5.6-15.4-5.6c-2.1,2.1-3.6,5.5-4.6,10.2c-1,4.7-2.2,9.8-3.7,15.1s-3.9,9.7-7.2,13.2c-1.8,1.8-4.8,5.5-9.3,10.9
	c-0.3,0.4-1.2,1.6-2.8,3.6c-1.5,2-2.8,3.6-3.8,4.9c-1,1.3-2.4,3-4.1,5.1c-1.8,2.1-3.4,3.9-4.8,5.3c-1.4,1.4-3,2.8-4.6,4.3
	c-1.6,1.4-3.2,2.5-4.8,3.2c-1.6,0.7-3,1.1-4.3,1.1h-3.8v76.9h3.8c1,0,2.3,0.1,3.8,0.4c1.5,0.2,2.8,0.5,4,0.8
	c1.2,0.3,2.7,0.7,4.6,1.3c1.9,0.6,3.3,1.1,4.2,1.4c0.9,0.3,2.3,0.8,4.3,1.5c1.9,0.7,3.1,1.1,3.5,1.3c16.9,5.9,30.6,8.8,41.1,8.8
	h14.5c15.4,0,23.1-6.7,23.1-20.1c0-2.1-0.2-4.3-0.6-6.7c2.4-1.3,4.3-3.4,5.7-6.3c1.4-2.9,2.1-5.9,2.1-8.8c0-3-0.7-5.7-2.2-8.3
	c4.2-4,6.4-8.8,6.4-14.3c0-2-0.4-4.2-1.2-6.7c-0.8-2.4-1.8-4.3-3-5.7c2.6-0.1,4.7-2,6.4-5.6C176.1,98.4,176.9,95.1,176.9,92.3
	L176.9,92.3z M192.3,92.2c0,7.1-2,13.7-5.9,19.6c0.7,2.6,1.1,5.4,1.1,8.3c0,6.2-1.5,11.9-4.6,17.3c0.2,1.7,0.4,3.4,0.4,5.2
	c0,8.1-2.4,15.2-7.2,21.4c0.1,11.1-3.3,19.9-10.2,26.4c-6.9,6.5-16,9.7-27.3,9.7h-15.5c-7.7,0-15.3-0.9-22.8-2.7s-16.2-4.4-26-7.9
	c-9.3-3.2-14.8-4.8-16.6-4.8H23.1c-4.2,0-7.9-1.5-10.9-4.5s-4.5-6.6-4.5-10.9V92.3c0-4.2,1.5-7.9,4.5-10.9c3-3,6.6-4.5,10.9-4.5H56
	c2.9-1.9,8.4-8.1,16.5-18.6c4.6-6,8.9-11.1,12.9-15.4c1.9-2,3.3-5.4,4.3-10.3c0.9-4.9,2.1-9.9,3.7-15.2c1.5-5.3,4-9.6,7.5-13
	c3.1-3,6.7-4.4,10.8-4.4c6.7,0,12.8,1.3,18.1,3.9c5.4,2.6,9.5,6.7,12.3,12.2s4.2,13,4.2,22.4c0,7.5-1.9,15.1-5.8,23.1h21.2
	c8.3,0,15.5,3,21.6,9.1S192.3,83.9,192.3,92.2L192.3,92.2z"/>
</svg>
