<?xml version="1.0" encoding="utf-8"?>
<!-- Generator: Adobe Illustrator 20.0.0, SVG Export Plug-In . SVG Version: 6.00 Build 0)  -->
<svg version="1.1" id="Layer_1" xmlns="http://www.w3.org/2000/svg" xmlns:xlink="http://www.w3.org/1999/xlink" x="0px" y="0px"
	 viewBox="0 0 200 200" style="enable-background:new 0 0 200 200;" xml:space="preserve">
<style type="text/css">
	.st0{fill:#F4EA00;}
</style>
<path class="st0" d="M91.5,62.5c0-3.5,2.8-6.2,6.2-6.2c3.4,0,6.2,2.8,6.2,6.2c0,3.4-2.8,6.2-6.2,6.2C94.3,68.8,91.5,65.9,91.5,62.5z
	 M91.5,137.5c0-3.4,2.8-6.2,6.2-6.2c3.4,0,6.2,2.8,6.2,6.2s-2.8,6.2-6.2,6.2C94.3,143.8,91.5,140.9,91.5,137.5z M54,100
	c0-3.5,2.8-6.2,6.2-6.2s6.2,2.8,6.2,6.2c0,3.4-2.8,6.2-6.2,6.2S54,103.4,54,100z M129,100c0-3.5,2.8-6.2,6.2-6.2s6.2,2.8,6.2,6.2
	c0,3.4-2.8,6.2-6.2,6.2S129,103.4,129,100z M65,126.5c0-3.5,2.8-6.2,6.2-6.2c3.4,0,6.2,2.8,6.2,6.2s-2.8,6.2-6.2,6.2
	C67.8,132.8,65,130,65,126.5z M65,73.5c0-3.4,2.8-6.2,6.2-6.2c3.4,0,6.2,2.8,6.2,6.2c0,3.5-2.8,6.2-6.2,6.2
	C67.8,79.7,65,76.9,65,73.5z M118,126.5c0-3.5,2.8-6.2,6.2-6.2c3.5,0,6.2,2.8,6.2,6.2s-2.8,6.2-6.2,6.2
	C120.8,132.8,118,130,118,126.5z M160.3,87.5c-0.4,0-0.8,0.2-1.2,0.2c-2.2-10.9-7.3-20.7-14.4-28.7l-9-48.8
	C134.6,4.3,129.4,0,123.4,0h-50c-6,0-11.2,4.3-12.3,10.2l-8.8,47.2c-10.5,11.2-17.1,26-17.1,42.6c0,16.1,6.3,30.7,16.4,41.7l8.8,48
	c1.1,5.9,6.3,10.2,12.3,10.2h50c6,0,11.2-4.3,12.3-10.2l8.9-48c7.4-8.2,12.8-18.2,15.1-29.5c0.4,0.1,0.8,0.3,1.2,0.3
	c6.9,0,12.5-5.6,12.5-12.5C172.8,93.1,167.2,87.5,160.3,87.5z M73.4,12.5h50l6.2,33.7c-9.2-5.4-19.8-8.7-31.2-8.7
	c-11.4,0-22,3.3-31.2,8.7L73.4,12.5z M122.8,187.5h-50l-6.2-33.7c9.2,5.4,19.8,8.7,31.3,8.7c11.4,0,22-3.3,31.2-8.7L122.8,187.5z
	 M97.8,150c-27.6,0-50-22.4-50-50s22.4-50,50-50s50,22.4,50,50C147.8,127.6,125.3,150,97.8,150z M128.6,68.9c0.8,0.8,0.8,2,0.2,2.8
	l-15.2,18.9l-11.6,13.9c-1.2,1.1-2.8,1.7-4.4,1.7c-1.7,0-3.2-0.7-4.4-1.8s-1.8-2.7-1.8-4.4c0-1.7,0.7-3.3,1.8-4.5l32.4-26.8
	C126.7,68.1,127.9,68.2,128.6,68.9z"/>
</svg>
