<?xml version="1.0" encoding="utf-8"?>
<!-- Generator: Adobe Illustrator 20.0.0, SVG Export Plug-In . SVG Version: 6.00 Build 0)  -->
<svg version="1.1" id="Layer_1" xmlns="http://www.w3.org/2000/svg" xmlns:xlink="http://www.w3.org/1999/xlink" x="0px" y="0px"
	 viewBox="0 0 64 64" style="enable-background:new 0 0 64 64;" xml:space="preserve">
<style type="text/css">
	.st0{fill:#F4EA00;}
</style>
<path class="st0" d="M62.5,12.9l-10-8C51.8,4.3,50.9,4,50,4H14c-0.9,0-1.8,0.3-2.5,0.9l-10,8c-1.3,1-1.8,2.8-1.3,4.4l4,12
	c0.4,1.2,1.3,2.1,2.5,2.5C7.1,31.9,7.6,32,8,32c0.7,0,1.4-0.2,2-0.5V56c0,2.2,1.8,4,4,4h36c2.2,0,4-1.8,4-4V31.5
	c0.6,0.4,1.3,0.5,2,0.5c0.4,0,0.9-0.1,1.3-0.2c1.2-0.4,2.1-1.3,2.5-2.5l4-12C64.3,15.7,63.8,13.9,62.5,12.9z M39.5,8
	c-1.1,2.3-4,4-7.5,4s-6.4-1.7-7.5-4H39.5z M56,28l-6-4v32H14V24l-6,4L4,16l10-8h8.4c1.1,3.4,5,6,9.6,6s8.5-2.6,9.6-6H50l10,8L56,28z
	"/>
</svg>
